<svg width="200" height="200" viewBox="0 0 200 200" fill="none" xmlns="http://www.w3.org/2000/svg">
<path d="M128.125 22.9175C155.163 22.9175 177.082 44.8365 177.082 71.875C177.082 98.9135 155.163 120.833 128.125 120.833C101.087 120.833 79.1675 98.9135 79.1675 71.875C79.1675 44.8365 101.087 22.9175 128.125 22.9175Z" fill="url(#paint0_linear_340_197)"/>
<path d="M128.125 106.327C147.153 106.327 162.577 90.9026 162.577 71.875C162.577 52.8474 147.153 37.4225 128.125 37.4225C109.097 37.4225 93.6725 52.8474 93.6725 71.875C93.6725 90.9026 109.097 106.327 128.125 106.327Z" fill="#76808F"/>
<path d="M110.5 71.875L128.125 54.25L145.75 71.875L128.125 89.5L110.5 71.875Z" fill="#929AA5"/>
<path d="M71.875 79.1675C98.9135 79.1675 120.832 101.087 120.832 128.125C120.832 155.163 98.9135 177.083 71.875 177.083C44.8365 177.083 22.9175 155.163 22.9175 128.125C22.9175 101.087 44.8365 79.1675 71.875 79.1675Z" fill="#F8D33A"/>
<path d="M71.875 93.6725C90.9026 93.6725 106.327 109.097 106.327 128.125C106.327 147.153 90.9026 162.578 71.875 162.578C52.8474 162.578 37.4225 147.153 37.4225 128.125C37.4225 109.097 52.8474 93.6725 71.875 93.6725Z" fill="url(#paint1_linear_340_197)"/>
<path d="M54.25 128.125L71.875 145.75L89.5 128.125L71.875 110.5L54.25 128.125Z" fill="#F0B90B"/>
<path opacity="0.2" d="M64.585 46.875L69.7925 41.6675L75.0025 46.875L69.7925 52.0825L64.585 46.875ZM127.085 141.665L135.417 133.333L143.753 141.667L135.417 150L127.085 141.665ZM12.5 97.9175L16.6675 93.75L20.8325 97.9175L16.6675 102.083L12.5 97.9175ZM75 25H25V75L75 25ZM125 175H175V125L125 175Z" fill="#76808F"/>
<defs>
<linearGradient id="paint0_linear_340_197" x1="177.082" y1="71.875" x2="177.082" y2="-26.0425" gradientUnits="userSpaceOnUse">
<stop stop-color="#929AA5"/>
<stop offset="1" stop-color="#76808F"/>
</linearGradient>
<linearGradient id="paint1_linear_340_197" x1="106.327" y1="128.125" x2="106.327" y2="59.22" gradientUnits="userSpaceOnUse">
<stop stop-color="#F0B90B"/>
<stop offset="1" stop-color="#F8D33A"/>
</linearGradient>
</defs>
</svg>
