<svg width="34" height="28" viewBox="0 0 34 28" fill="none" xmlns="http://www.w3.org/2000/svg">
<path d="M30.2541 7.20013C30.2744 7.49399 30.2744 7.78785 30.2744 8.08442C30.2744 17.1209 23.3952 27.5427 10.8161 27.5427V27.5373C7.10021 27.5427 3.46151 26.4783 0.333332 24.4714C0.873653 24.5364 1.41668 24.5689 1.96107 24.5703C5.04049 24.573 8.03189 23.5398 10.4545 21.6371C7.52813 21.5816 4.96195 19.6736 4.06547 16.888C5.09059 17.0857 6.14686 17.0451 7.15302 16.7702C3.96256 16.1256 1.66721 13.3224 1.66721 10.0669C1.66721 10.0372 1.66721 10.0087 1.66721 9.98028C2.61785 10.5098 3.68224 10.8036 4.77101 10.8361C1.76606 8.82787 0.839798 4.8303 2.65441 1.70484C6.12655 5.9773 11.2494 8.57463 16.7488 8.84953C16.1976 6.47429 16.9506 3.98529 18.7273 2.31558C21.4817 -0.273631 25.8137 -0.14092 28.4029 2.61214C29.9345 2.31016 31.4025 1.74817 32.7458 0.951909C32.2353 2.53495 31.1668 3.87966 29.7395 4.73416C31.0951 4.57436 32.4195 4.21144 33.6667 3.65758C32.7485 5.03343 31.5921 6.23189 30.2541 7.20013Z" fill="white"/>
</svg>
