<svg width="200" height="200" viewBox="0 0 200 200" fill="none" xmlns="http://www.w3.org/2000/svg">
<path d="M75 112.5L100 137.5L125 112.5V175H75V112.5Z" fill="url(#paint0_linear_340_205)"/>
<path d="M99.995 95.835C79.285 95.835 62.495 79.045 62.495 58.335C62.495 37.625 79.2825 20.835 99.995 20.835C120.705 20.835 137.495 37.625 137.495 58.335C137.495 79.0475 120.705 95.835 99.995 95.835Z" fill="url(#paint1_linear_340_205)"/>
<path opacity="0.2" d="M160.415 95.835L168.748 104.167L177.083 95.8325L168.748 87.5L160.415 95.835ZM41.665 16.6675L47.915 22.9175L54.165 16.6675L47.915 10.4175L41.665 16.6675ZM16.665 77.0825L20.8325 81.25L24.9975 77.0825L20.8325 72.9175L16.665 77.0825Z" fill="#76808F"/>
<path d="M75 112.5H58.3325C39.925 112.5 25 127.425 25 145.833V175H75V112.5Z" fill="url(#paint2_linear_340_205)"/>
<path d="M125 175H175V145.833C175 127.425 160.075 112.5 141.667 112.5H125V175Z" fill="url(#paint3_linear_340_205)"/>
<defs>
<linearGradient id="paint0_linear_340_205" x1="100" y1="175" x2="100" y2="112.5" gradientUnits="userSpaceOnUse">
<stop stop-color="#F0B90B"/>
<stop offset="1" stop-color="#F8D33A"/>
</linearGradient>
<linearGradient id="paint1_linear_340_205" x1="99.995" y1="95.835" x2="99.995" y2="20.835" gradientUnits="userSpaceOnUse">
<stop stop-color="#F0B90B"/>
<stop offset="1" stop-color="#F8D33A"/>
</linearGradient>
<linearGradient id="paint2_linear_340_205" x1="100" y1="112.5" x2="100" y2="175" gradientUnits="userSpaceOnUse">
<stop stop-color="#929AA5"/>
<stop offset="1" stop-color="#76808F"/>
</linearGradient>
<linearGradient id="paint3_linear_340_205" x1="100" y1="112.5" x2="100" y2="175" gradientUnits="userSpaceOnUse">
<stop stop-color="#929AA5"/>
<stop offset="1" stop-color="#76808F"/>
</linearGradient>
</defs>
</svg>
