<svg width="30" height="30" viewBox="0 0 30 30" fill="none" xmlns="http://www.w3.org/2000/svg">
<path d="M15.0629 0.483887C6.82935 0.483887 0.12871 6.93776 0.125806 14.8694C0.123871 17.4058 0.812903 19.8813 2.11935 22.0616L0 29.5161L7.91903 27.5158C10.1218 28.6681 12.5711 29.2691 15.0571 29.2674H15.0629C23.2964 29.2674 29.9971 22.8126 30 14.881C30.0019 11.039 28.4497 7.4226 25.6287 4.70421C22.8087 1.98485 19.0587 0.484854 15.0629 0.483887ZM15.0629 26.8374H15.0581C12.8303 26.8374 10.6452 26.2607 8.73871 25.171L8.28387 24.9116L3.58645 26.0981L4.84064 21.6852L4.54548 21.2332C3.30571 19.3424 2.64574 17.1304 2.64677 14.8694C2.64968 8.27614 8.22 2.91389 15.0677 2.91389C18.3832 2.91485 21.5003 4.16034 23.8452 6.42002C26.19 8.67969 27.48 11.6845 27.4781 14.88C27.4752 21.4732 21.9058 26.8374 15.0619 26.8374H15.0629ZM21.8729 17.881C21.4994 17.702 19.6645 16.832 19.3219 16.711C18.9803 16.592 18.7316 16.53 18.4829 16.89C18.2352 17.25 17.519 18.06 17.3023 18.299C17.0835 18.539 16.8658 18.5681 16.4923 18.389C16.1187 18.209 14.9158 17.8297 13.4913 16.6045C12.3813 15.6523 11.6323 14.4755 11.4145 14.1145C11.1968 13.7555 11.3913 13.561 11.5781 13.382C11.7455 13.2223 11.9516 12.9629 12.1374 12.7529C12.3232 12.5429 12.3852 12.3929 12.511 12.1529C12.6348 11.9139 12.5729 11.7029 12.479 11.5239C12.3852 11.3429 11.64 9.57389 11.3274 8.85485C11.0255 8.15421 10.7177 8.24808 10.4884 8.23647C10.2706 8.22679 10.0229 8.22389 9.77226 8.22389C9.52548 8.22389 9.12 8.31389 8.77742 8.67389C8.43581 9.03389 7.47097 9.90292 7.47097 11.672C7.47097 13.442 8.80839 15.151 8.99516 15.391C9.18193 15.63 11.6274 19.262 15.3716 20.82C16.2619 21.1887 16.9568 21.4103 17.4997 21.5768C18.3939 21.8507 19.2077 21.811 19.8503 21.719C20.5664 21.6155 22.0587 20.85 22.3684 20.011C22.68 19.172 22.68 18.452 22.5871 18.302C22.4961 18.152 22.2464 18.062 21.8729 17.881V17.881Z" fill="white"/>
</svg>
