<svg width="16" height="16" viewBox="0 0 16 16" fill="none" xmlns="http://www.w3.org/2000/svg">
<path d="M1.58594 15.0833C1.16927 15.0833 0.815104 14.9375 0.523438 14.6458C0.231771 14.3542 0.0859375 14 0.0859375 13.5833V4.91667C0.0859375 4.5 0.231771 4.14583 0.523438 3.85417C0.815104 3.5625 1.16927 3.41667 1.58594 3.41667H5.08594V2C5.08594 1.58333 5.23177 1.22917 5.52344 0.9375C5.8151 0.645833 6.16927 0.5 6.58594 0.5H9.41927C9.83594 0.5 10.1901 0.645833 10.4818 0.9375C10.7734 1.22917 10.9193 1.58333 10.9193 2V3.41667H14.4193C14.8359 3.41667 15.1901 3.5625 15.4818 3.85417C15.7734 4.14583 15.9193 4.5 15.9193 4.91667V13.5833C15.9193 14 15.7734 14.3542 15.4818 14.6458C15.1901 14.9375 14.8359 15.0833 14.4193 15.0833H1.58594ZM6.33594 3.41667H9.66927V2C9.66927 1.94444 9.64149 1.88889 9.58594 1.83333C9.53038 1.77778 9.47483 1.75 9.41927 1.75H6.58594C6.53038 1.75 6.47483 1.77778 6.41927 1.83333C6.36372 1.88889 6.33594 1.94444 6.33594 2V3.41667ZM14.6693 10.2917H10.0859V11.75H5.91927V10.2917H1.33594V13.5833C1.33594 13.6389 1.36372 13.6944 1.41927 13.75C1.47483 13.8056 1.53038 13.8333 1.58594 13.8333H14.4193C14.4748 13.8333 14.5304 13.8056 14.5859 13.75C14.6415 13.6944 14.6693 13.6389 14.6693 13.5833V10.2917ZM7.16927 10.5H8.83594V8.83333H7.16927V10.5ZM1.33594 9.04167H5.91927V7.58333H10.0859V9.04167H14.6693V4.91667C14.6693 4.86111 14.6415 4.80556 14.5859 4.75C14.5304 4.69445 14.4748 4.66667 14.4193 4.66667H1.58594C1.53038 4.66667 1.47483 4.69445 1.41927 4.75C1.36372 4.80556 1.33594 4.86111 1.33594 4.91667V9.04167Z" fill="#08309E"/>
</svg>
