<svg width="20" height="20" viewBox="0 0 20 20" fill="none" xmlns="http://www.w3.org/2000/svg">
<circle cx="10" cy="10" r="9.8" stroke="#C8C6CA" stroke-width="0.4"/>
<mask id="mask0_204_2248" style="mask-type:alpha" maskUnits="userSpaceOnUse" x="2" y="2" width="16" height="16">
<rect x="2" y="2" width="16" height="16" fill="#D9D9D9"/>
</mask>
<g mask="url(#mask0_204_2248)">
<path d="M10.0009 10.6999L6.61758 14.0833C6.52869 14.1722 6.41491 14.2193 6.27624 14.2246C6.13713 14.2304 6.01758 14.1833 5.91758 14.0833C5.81758 13.9833 5.76758 13.8666 5.76758 13.7333C5.76758 13.5999 5.81758 13.4833 5.91758 13.3833L9.30091 9.99994L5.91758 6.6166C5.82869 6.52771 5.78158 6.41371 5.77624 6.2746C5.77047 6.13593 5.81758 6.0166 5.91758 5.9166C6.01758 5.8166 6.13424 5.7666 6.26758 5.7666C6.40091 5.7666 6.51758 5.8166 6.61758 5.9166L10.0009 9.29993L13.3842 5.9166C13.4731 5.82771 13.5871 5.78038 13.7262 5.7746C13.8649 5.76927 13.9842 5.8166 14.0842 5.9166C14.1842 6.0166 14.2342 6.13327 14.2342 6.2666C14.2342 6.39993 14.1842 6.5166 14.0842 6.6166L10.7009 9.99994L14.0842 13.3833C14.1731 13.4722 14.2202 13.5859 14.2256 13.7246C14.2314 13.8637 14.1842 13.9833 14.0842 14.0833C13.9842 14.1833 13.8676 14.2333 13.7342 14.2333C13.6009 14.2333 13.4842 14.1833 13.3842 14.0833L10.0009 10.6999Z" fill="#303034"/>
</g>
</svg>
