<svg width="13" height="12" viewBox="0 0 13 12" fill="none" xmlns="http://www.w3.org/2000/svg">
<mask id="mask0_646_3078" style="mask-type:alpha" maskUnits="userSpaceOnUse" x="0" y="0" width="13" height="12">
<rect x="0.25" width="12" height="12" fill="#D9D9D9"/>
</mask>
<g mask="url(#mask0_646_3078)">
<path d="M3.75 10.5C3.475 10.5 3.23967 10.4022 3.044 10.2065C2.848 10.0105 2.75 9.775 2.75 9.5V3H2.25V2H4.75V1.5H7.75V2H10.25V3H9.75V9.5C9.75 9.775 9.65217 10.0105 9.4565 10.2065C9.2605 10.4022 9.025 10.5 8.75 10.5H3.75ZM8.75 3H3.75V9.5H8.75V3ZM4.75 8.5H5.75V4H4.75V8.5ZM6.75 8.5H7.75V4H6.75V8.5Z" fill="#77767A"/>
</g>
</svg>
