<svg width="13" height="12" viewBox="0 0 13 12" fill="none" xmlns="http://www.w3.org/2000/svg">
<mask id="mask0_646_3073" style="mask-type:alpha" maskUnits="userSpaceOnUse" x="0" y="0" width="13" height="12">
<rect x="0.25" width="12" height="12" fill="#D9D9D9"/>
</mask>
<g mask="url(#mask0_646_3073)">
<path d="M2.75 9.5H3.45L7.7625 5.1875L7.0625 4.4875L2.75 8.8V9.5ZM9.9 4.4625L7.775 2.3625L8.475 1.6625C8.66667 1.47083 8.90217 1.375 9.1815 1.375C9.4605 1.375 9.69583 1.47083 9.8875 1.6625L10.5875 2.3625C10.7792 2.55417 10.8792 2.7855 10.8875 3.0565C10.8958 3.32717 10.8042 3.55833 10.6125 3.75L9.9 4.4625ZM9.175 5.2L3.875 10.5H1.75V8.375L7.05 3.075L9.175 5.2Z" fill="#77767A"/>
</g>
</svg>
