<svg width="118" height="23" viewBox="0 0 118 23" fill="none" xmlns="http://www.w3.org/2000/svg">
<path d="M3.52886 17V12.446C3.52886 10.664 3.50686 9.3 3.30886 8.09L6.74086 17H9.99686L13.4509 8.09C13.2749 9.3 13.2749 10.07 13.2749 13.59V17H16.7289V0.72H13.2309L8.36886 12.864L3.52886 0.72H0.0748595V17H3.52886ZM23.0238 17.286C24.6738 17.286 26.1258 16.56 26.4778 15.548L26.6978 17H29.6898V10.576C29.6898 7.43 27.8858 5.648 24.6958 5.648C21.5498 5.648 19.5038 7.276 19.5038 9.762H22.3198C22.3198 8.772 23.0898 8.222 24.5198 8.222C25.7298 8.222 26.3898 8.794 26.3898 9.872V10.048L23.3098 10.29C20.6698 10.488 19.2398 11.742 19.2398 13.766C19.2398 15.922 20.6918 17.286 23.0238 17.286ZM24.2118 14.778C23.1778 14.778 22.6938 14.404 22.6938 13.612C22.6938 12.908 23.2218 12.578 24.6958 12.446L26.4118 12.292V12.886C26.4118 14.14 25.5098 14.778 24.2118 14.778ZM39.6878 6C39.2258 5.89 38.7858 5.846 38.3898 5.846C36.9158 5.846 35.9478 6.572 35.4858 7.65L35.3098 6.022H32.1198V17H35.5078V12.226C35.5078 10.048 36.6738 9.19 38.6098 9.19H39.6878V6ZM44.789 17V14.25L46.087 12.886L48.551 17H52.467L48.463 10.356L52.599 6H48.353L44.789 9.96V0.412H41.401V17H44.789ZM58.5363 17.286C61.5503 17.286 63.7283 15.724 64.1243 13.282H61.0223C60.7803 14.074 59.8783 14.536 58.6023 14.536C57.1063 14.536 56.2923 13.854 56.0943 12.402L64.0803 12.358V11.5C64.0803 7.914 61.9243 5.648 58.4703 5.648C55.1483 5.648 52.8383 8.046 52.8383 11.478C52.8383 14.866 55.2143 17.286 58.5363 17.286ZM58.4923 8.398C59.8563 8.398 60.7143 9.146 60.7143 10.312H56.1383C56.4023 8.992 57.1503 8.398 58.4923 8.398ZM70.4231 17V8.816H72.5131V6H70.4231V2.59H67.0351V6H64.9451V8.816H67.0351V17H70.4231ZM81.0538 11.588C84.3758 11.588 86.5978 9.41 86.5978 6.154C86.5978 2.898 84.3758 0.72 81.0538 0.72H74.4538V17H78.0178V11.588H81.0538ZM80.2618 3.888C81.9778 3.888 82.8358 4.636 82.8358 6.154C82.8358 7.672 81.9778 8.42 80.2618 8.42H78.0178V3.888H80.2618ZM91.8183 17V0.412H88.4303V17H91.8183ZM97.682 17.286C99.332 17.286 100.784 16.56 101.136 15.548L101.356 17H104.348V10.576C104.348 7.43 102.544 5.648 99.354 5.648C96.208 5.648 94.162 7.276 94.162 9.762H96.978C96.978 8.772 97.748 8.222 99.178 8.222C100.388 8.222 101.048 8.794 101.048 9.872V10.048L97.968 10.29C95.328 10.488 93.898 11.742 93.898 13.766C93.898 15.922 95.35 17.286 97.682 17.286ZM98.87 14.778C97.836 14.778 97.352 14.404 97.352 13.612C97.352 12.908 97.88 12.578 99.354 12.446L101.07 12.292V12.886C101.07 14.14 100.168 14.778 98.87 14.778ZM105.576 22.28C106.236 22.478 107.006 22.588 107.82 22.588C109.756 22.588 110.988 21.642 111.912 19.398L117.5 6H113.98L111.318 13.062L108.92 6H105.29L109.712 17.374L109.514 17.902C109.074 19.09 108.59 19.442 107.446 19.442H105.576V22.28Z" fill="#002485"/>
</svg>
