<svg width="22" height="21" viewBox="0 0 22 21" fill="none" xmlns="http://www.w3.org/2000/svg">
<path d="M1.54922 15.8266L0.324219 14.9266L5.02422 7.42656L8.02422 10.9266L11.9992 4.45156L14.3992 8.05156C14.1159 8.06823 13.8452 8.10556 13.5872 8.16356C13.3286 8.22223 13.0742 8.30156 12.8242 8.40156L12.0742 7.25156L8.24922 13.4516L5.22422 9.92656L1.54922 15.8266ZM20.5742 20.6516L17.2992 17.3766C16.9825 17.6099 16.6326 17.7849 16.2492 17.9016C15.8659 18.0182 15.4742 18.0766 15.0742 18.0766C13.9576 18.0766 13.0119 17.6892 12.2372 16.9146C11.4619 16.1392 11.0742 15.1932 11.0742 14.0766C11.0742 12.9599 11.4619 12.0139 12.2372 11.2386C13.0119 10.4639 13.9576 10.0766 15.0742 10.0766C16.1909 10.0766 17.1369 10.4639 17.9122 11.2386C18.6869 12.0139 19.0742 12.9599 19.0742 14.0766C19.0742 14.4932 19.0159 14.8932 18.8992 15.2766C18.7826 15.6599 18.6076 16.0099 18.3742 16.3266L21.6492 19.5766L20.5742 20.6516ZM15.0742 16.5766C15.7742 16.5766 16.3659 16.3349 16.8492 15.8516C17.3326 15.3682 17.5742 14.7766 17.5742 14.0766C17.5742 13.3766 17.3326 12.7849 16.8492 12.3016C16.3659 11.8182 15.7742 11.5766 15.0742 11.5766C14.3742 11.5766 13.7826 11.8182 13.2992 12.3016C12.8159 12.7849 12.5742 13.3766 12.5742 14.0766C12.5742 14.7766 12.8159 15.3682 13.2992 15.8516C13.7826 16.3349 14.3742 16.5766 15.0742 16.5766ZM17.0992 8.40156C16.8659 8.30156 16.6242 8.22223 16.3742 8.16356C16.1242 8.10556 15.8576 8.06823 15.5742 8.05156L20.4492 0.351562L21.6742 1.25156L17.0992 8.40156Z" fill="#919094"/>
</svg>
