<?xml version="1.0" encoding="UTF-8"?>
<svg id="Guides" xmlns="http://www.w3.org/2000/svg" viewBox="0 0 24.51 24.51">
  <defs>
    <style>
      .cls-1 {
        fill: #fff;
      }

      .cls-2 {
        fill: #0077b7;
      }
    </style>
  </defs>
  <rect class="cls-2" width="24.51" height="24.51" rx="1.89" ry="1.89"/>
  <g>
    <path class="cls-1" d="m13.08,10.94c.29-.31.56-.6.92-.82.9-.56,1.9-.65,2.94-.59.74.04,1.44.22,2.05.63,1.09.74,1.46,1.92,1.65,3.2.03.17.04.35.04.52.02,2.11.01,4.22.01,6.32,0,.12-.1.23-.22.23-1.08,0-2.16,0-3.25,0-.12,0-.23-.1-.23-.23,0-1.81,0-3.63,0-5.44,0-.42-.05-.83-.2-1.22-.24-.63-.7-1.02-1.42-1.09-.83-.08-1.49.19-1.89.9-.27.49-.4,1.01-.4,1.56,0,1.75,0,3.51,0,5.26,0,.14-.12.26-.26.26-1.04,0-2.08,0-3.12,0-.13,0-.24-.11-.24-.24,0-3.43,0-6.85,0-10.28,0-.13.11-.24.24-.24.91,0,1.81,0,2.72,0,.45,0,.66.2.66.63,0,.21,0,.43,0,.64Z"/>
    <path class="cls-1" d="m7.64,15.05c0,1.56,0,3.12,0,4.68,0,.51-.19.69-.73.69-.72,0-1.45,0-2.17,0-.51,0-.72-.2-.72-.67,0-3.14,0-6.27,0-9.41,0-.48.21-.68.73-.68.73,0,1.46,0,2.19,0,.49,0,.7.2.7.66,0,1.57,0,3.15,0,4.72Z"/>
    <path class="cls-1" d="m5.99,8.45c-1.22-.01-2.18-.99-2.17-2.21.01-1.2,1-2.17,2.2-2.16,1.21.01,2.18,1,2.18,2.2,0,1.22-1,2.19-2.21,2.18Z"/>
  </g>
</svg>