<?xml version="1.0" encoding="UTF-8"?>
<svg id="Layer_1" data-name="Layer 1" xmlns="http://www.w3.org/2000/svg" xmlns:xlink="http://www.w3.org/1999/xlink" viewBox="0 0 32 32">
  <defs>
    <style>
      .cls-1 {
        fill: #fff;
      }

      .cls-2 {
        clip-path: url(#clippath);
      }

      .cls-3 {
        fill: none;
      }
    </style>
    <clipPath id="clippath">
      <rect class="cls-3" width="32" height="32"/>
    </clipPath>
  </defs>
  <g class="cls-2">
    <g>
      <path class="cls-1" d="m17.62,13.17c.52-.59,1.02-1.16,1.66-1.59,1.63-1.09,3.45-1.25,5.33-1.14,1.34.08,2.61.42,3.71,1.22,1.36.98,2.1,2.36,2.54,3.93.4,1.41.53,2.86.54,4.31.03,3.5.02,7.01.02,10.51,0,.75-.37,1.13-1.12,1.13-1.49,0-2.98,0-4.48,0-.75,0-1.12-.39-1.12-1.13,0-3.28,0-6.56,0-9.85,0-.8-.1-1.6-.37-2.37-.44-1.22-1.26-1.97-2.57-2.11-1.51-.16-2.7.37-3.43,1.75-.5.94-.73,1.96-.73,3.03,0,3.13,0,6.25,0,9.38,0,.95-.34,1.3-1.28,1.3-1.36,0-2.72,0-4.09,0-.84,0-1.21-.36-1.21-1.2,0-6.14,0-12.27,0-18.41,0-.84.37-1.21,1.21-1.21,1.39,0,2.78,0,4.16,0,.82,0,1.2.38,1.2,1.22,0,.41,0,.83,0,1.24Z"/>
      <path class="cls-1" d="m8.08,21.13c0,3.02,0,6.04,0,9.06,0,.99-.35,1.34-1.33,1.34-1.31,0-2.62,0-3.93,0-.92,0-1.3-.38-1.3-1.3,0-6.07,0-12.14,0-18.21,0-.94.38-1.32,1.32-1.32,1.32,0,2.65,0,3.97,0,.89,0,1.27.38,1.27,1.28,0,3.05,0,6.09,0,9.14Z"/>
      <path class="cls-1" d="m4.77,8.93c-2.36-.02-4.22-1.91-4.2-4.28C.59,2.32,2.51.44,4.84.47c2.34.03,4.23,1.93,4.21,4.25-.02,2.35-1.93,4.23-4.28,4.21Z"/>
    </g>
    <g>
      <path class="cls-1" d="m17.62,13.17c.52-.59,1.02-1.16,1.66-1.59,1.63-1.09,3.45-1.25,5.33-1.14,1.34.08,2.61.42,3.71,1.22,1.36.98,2.1,2.36,2.54,3.93.4,1.41.53,2.86.54,4.31.03,3.5.02,7.01.02,10.51,0,.75-.37,1.13-1.12,1.13-1.49,0-2.98,0-4.48,0-.75,0-1.12-.39-1.12-1.13,0-3.28,0-6.56,0-9.85,0-.8-.1-1.6-.37-2.37-.44-1.22-1.26-1.97-2.57-2.11-1.51-.16-2.7.37-3.43,1.75-.5.94-.73,1.96-.73,3.03,0,3.13,0,6.25,0,9.38,0,.95-.34,1.3-1.28,1.3-1.36,0-2.72,0-4.09,0-.84,0-1.21-.36-1.21-1.2,0-6.14,0-12.27,0-18.41,0-.84.37-1.21,1.21-1.21,1.39,0,2.78,0,4.16,0,.82,0,1.2.38,1.2,1.22,0,.41,0,.83,0,1.24Z"/>
      <path class="cls-1" d="m8.08,21.13c0,3.02,0,6.04,0,9.06,0,.99-.35,1.34-1.33,1.34-1.31,0-2.62,0-3.93,0-.92,0-1.3-.38-1.3-1.3,0-6.07,0-12.14,0-18.21,0-.94.38-1.32,1.32-1.32,1.32,0,2.65,0,3.97,0,.89,0,1.27.38,1.27,1.28,0,3.05,0,6.09,0,9.14Z"/>
      <path class="cls-1" d="m4.77,8.93c-2.36-.02-4.22-1.91-4.2-4.28C.59,2.32,2.51.44,4.84.47c2.34.03,4.23,1.93,4.21,4.25-.02,2.35-1.93,4.23-4.28,4.21Z"/>
    </g>
  </g>
</svg>